<svg xmlns="http://www.w3.org/2000/svg" width="238.415" height="40.002" viewBox="0 0 238.415 40.002">
    <defs>
        <style>
            .cls-1,.cls-2{fill-rule:evenodd}.cls-1{fill:url(#linear-gradient)}.cls-2{fill:#111}
        </style>
        <linearGradient id="linear-gradient" x1="-10.847" x2="-10.873" y1="15.6" y2="15.568" gradientUnits="objectBoundingBox">
            <stop offset="0" stop-color="#7857f9"/>
            <stop offset="1" stop-color="#4c30bf"/>
        </linearGradient>
    </defs>
    <g id="logo" transform="translate(-.38 -32.02)">
        <g id="Group_1" data-name="Group 1" transform="translate(.38 32.021)">
            <path id="Path_1" d="M15.581 32.329L1.519 40.488a2.283 2.283 0 0 0-1.137 1.974L.38 58.8a2.284 2.284 0 0 0 1.137 1.97l14.064 8.158a2.283 2.283 0 0 0 2.291 0l14.064-8.158a2.284 2.284 0 0 0 1.137-1.97V42.462a2.28 2.28 0 0 0-1.137-1.974l-14.065-8.16a2.283 2.283 0 0 0-2.291 0" class="cls-1" data-name="Path 1" transform="translate(-.38 -32.02)"/>
        </g>
        <g id="Group_3" data-name="Group 3" transform="translate(45.069 38.493)">
            <g id="Group_2" data-name="Group 2">
                <path id="Path_2" d="M162.482 59.364a4.837 4.837 0 0 1-5.326 4.155 4.706 4.706 0 0 1-3.974-4.948 4.621 4.621 0 0 1 4.7-4.869c3.045 0 5.013 2.621 4.6 5.663zm-93.443 2.37a5.343 5.343 0 0 1-4.272 1.921 5.152 5.152 0 0 1 0-10.292 5.479 5.479 0 0 1 4.272 1.922zM39.575 55.2h-4.359v-8.969h4.356c3.162 0 5.254 1.667 5.254 4.272 0 2.862-2.092 4.7-5.254 4.7zm.125-15.335c7.6 0 12.3 4.1 12.3 10.637 0 6.789-4.954 11.019-12.857 11.019h-3.925v6.242a1.149 1.149 0 0 1-1.147 1.147h-4.925A1.145 1.145 0 0 1 28 67.762V41.014a1.148 1.148 0 0 1 1.146-1.149zm36.258 27.847a1.2 1.2 0 0 1-1.2 1.2h-5.719v-1.155a10.237 10.237 0 0 1-5.679 1.579 10.5 10.5 0 0 1-10.3-10.805 10.473 10.473 0 0 1 10.298-10.805 10.239 10.239 0 0 1 5.681 1.574v-1.1h5.723a1.2 1.2 0 0 1 1.2 1.2v18.313zM94.1 60.41h4.323a1.159 1.159 0 0 1 1.126 1.424c-1.092 4.55-5.2 7.545-10.4 7.545-6.493 0-11.321-4.527-11.321-10.849 0-6.278 4.83-10.805 11.321-10.805 5.2 0 9.3 2.995 10.4 7.545a1.158 1.158 0 0 1-.862 1.393 1.18 1.18 0 0 1-.26.031H94.1a1.119 1.119 0 0 1-1.048-.7 3.96 3.96 0 0 0-3.857-2.414c-2.992 0-4.741 2.136-4.741 4.954s1.749 5 4.741 5a3.967 3.967 0 0 0 3.859-2.414 1.117 1.117 0 0 1 1.046-.71zm15.334 4.4v2.94a1.16 1.16 0 0 1-1.16 1.16h-4.642a1.16 1.16 0 0 1-1.16-1.16v-28a1.16 1.16 0 0 1 1.16-1.16h4.644a1.16 1.16 0 0 1 1.158 1.16v16.176l6.831-7.362.849-.371h5.076a1.161 1.161 0 0 1 .849 1.951l-5.409 5.82a1.166 1.166 0 0 0-.1 1.455l6.739 9.666a1.16 1.16 0 0 1-.953 1.824h-5.453a1.164 1.164 0 0 1-.955-.5l-4.61-6.674zm36.491-15.46v3.628a1.156 1.156 0 0 1-1.155 1.155h-6.148v13.621a1.153 1.153 0 0 1-1.152 1.155h-4.613a1.153 1.153 0 0 1-1.154-1.154V54.13h-3.928a1.156 1.156 0 0 1-1.155-1.154v-3.627a1.155 1.155 0 0 1 1.155-1.154h3.925v-2.479c0-5.979 3.8-9.7 9.1-9.7a20.128 20.128 0 0 1 4.427.508 1.168 1.168 0 0 1 .913 1.32l-.579 3.552a1.155 1.155 0 0 1-1.322.951 14.456 14.456 0 0 0-2.029-.181 3.266 3.266 0 0 0-3.587 3.375V48.2h6.148a1.155 1.155 0 0 1 1.154 1.149zm23.144 9.181a10.748 10.748 0 0 1-11.19 11.019c-6.577 0-11.274-4.7-11.274-11.019 0-6.236 4.7-10.805 11.274-10.805 6.537-.002 11.19 4.567 11.19 10.803zM184.1 54.5a9.612 9.612 0 0 0-5.682 2.186c-.129.3-.248.561-.379.861v10.215a1.149 1.149 0 0 1-1.147 1.149h-4.668a1.149 1.149 0 0 1-1.147-1.149V49.341a1.149 1.149 0 0 1 1.149-1.147h5.813v2.22a10.163 10.163 0 0 1 5.836-2.5 1.163 1.163 0 0 1 1.288 1.026.967.967 0 0 1 .008.118v4.3A1.159 1.159 0 0 1 184.1 54.5zm37.63 2.578v10.685a1.146 1.146 0 0 1-1.146 1.146h-4.629a1.146 1.146 0 0 1-1.146-1.146v-9.575c0-2.948-1.451-4.357-3.715-4.357a4.039 4.039 0 0 0-3.162 1.709c.044.513.086 1.026.086 1.537v10.685a1.146 1.146 0 0 1-1.146 1.146h-4.627a1.146 1.146 0 0 1-1.146-1.146v-9.574c0-2.948-1.451-4.357-3.716-4.357a3.9 3.9 0 0 0-3.074 1.794V67.76a1.146 1.146 0 0 1-1.147 1.147h-4.672a1.146 1.146 0 0 1-1.146-1.146v-18.42a1.146 1.146 0 0 1 1.147-1.146h5.815v1.2a7.04 7.04 0 0 1 5.081-1.838 8.2 8.2 0 0 1 6.407 2.819 9.987 9.987 0 0 1 7.346-2.819c4.96-.004 8.585 3.627 8.585 9.521z" class="cls-2" data-name="Path 2" transform="translate(-28 -36.021)"/>
            </g>
        </g>
    </g>
</svg>
