<svg xmlns="http://www.w3.org/2000/svg" width="20" height="20" viewBox="0 0 20 20">
    <defs>
        <style>
            .cls-1{fill:#a2a2a2}
        </style>
    </defs>
    <g id="icon20" transform="translate(-1720 -30)">
        <path id="Path_387" d="M19.862 18.316l-4.742-4.742a.464.464 0 0 0-.332-.137h-.516a8.123 8.123 0 1 0-.836.836v.516a.48.48 0 0 0 .137.332l4.742 4.742a.469.469 0 0 0 .664 0l.883-.883a.469.469 0 0 0 0-.664zM8.125 14.374a6.25 6.25 0 1 1 6.25-6.25 6.248 6.248 0 0 1-6.25 6.25z" class="cls-1" data-name="Path 387" transform="translate(1720 30)"/>
    </g>
</svg>
